<?xml version="1.0" encoding="utf-8"?>
<!-- Generator: Adobe Illustrator 18.0.0, SVG Export Plug-In . SVG Version: 6.00 Build 0)  -->
<!DOCTYPE svg PUBLIC "-//W3C//DTD SVG 1.1//EN" "http://www.w3.org/Graphics/SVG/1.1/DTD/svg11.dtd">
<svg version="1.1" id="Icon_Set" xmlns="http://www.w3.org/2000/svg" xmlns:xlink="http://www.w3.org/1999/xlink" x="0px" y="0px"
	 viewBox="0 0 512 512" style="enable-background:new 0 0 512 512;" xml:space="preserve">
<style type="text/css">
	.st0{fill:#F0C48A;}
	.st1{fill:#FD919E;}
	.st2{fill:#E8677D;}
	.st3{fill:#4C4372;}
	.st4{fill:#D3E6F8;}
	.st5{fill:#A4CFF2;}
	.st6{fill:#FFFFFF;}
	.st7{fill:#7BABF1;}
</style>
<g>
	<circle class="st0" cx="256" cy="256" r="207"/>
	<g>
		<g>
			<path class="st5" d="M506.137,463.979H38.543c-18.049,0-32.68-14.631-32.68-32.68V110.975h500.275V463.979z"/>
		</g>
		<g>
			<path class="st7" d="M38.543,463.979H76.2v-78.591H5.863v45.911C5.863,449.348,20.494,463.979,38.543,463.979z"/>
		</g>
		<g>
			<rect x="479.37" y="111.138" class="st7" width="26.767" height="352.841"/>
		</g>
		<g>
			<rect x="76.2" y="145.561" class="st4" width="395.877" height="293.411"/>
		</g>
		<g>
			<g>
				<path class="st1" d="M448.298,308.905v-33.277h-29.381c-2.26-11.665-6.832-22.505-13.247-32.004l20.768-20.768l-23.53-23.529
					l-20.768,20.768c-9.5-6.415-20.34-10.987-32.006-13.247v-29.381h-33.275v29.381c-11.666,2.26-22.506,6.831-32.005,13.247
					l-20.768-20.768l-23.529,23.529l20.768,20.768c-6.415,9.499-10.987,20.34-13.247,32.004h-29.381v33.277h29.381
					c2.259,11.665,6.832,22.505,13.247,32.005l-20.768,20.768l23.529,23.53l20.768-20.769c9.499,6.416,20.34,10.987,32.005,13.247
					v29.38h33.275v-29.38c11.666-2.26,22.506-6.832,32.006-13.247l20.768,20.769l23.53-23.53l-20.768-20.768
					c6.416-9.5,10.987-20.34,13.247-32.005H448.298z M332.942,334.854c-23.52,0-42.587-19.068-42.587-42.588
					s19.067-42.587,42.587-42.587c23.521,0,42.588,19.067,42.588,42.587S356.463,334.854,332.942,334.854z"/>
			</g>
			<g>
				<g>
					<path class="st3" d="M332.942,340.717c-26.715,0-48.449-21.735-48.449-48.45c0-26.715,21.734-48.449,48.449-48.449
						c26.716,0,48.45,21.734,48.45,48.449C381.392,318.982,359.657,340.717,332.942,340.717z M332.942,255.542
						c-20.25,0-36.724,16.474-36.724,36.724c0,20.25,16.474,36.725,36.724,36.725c20.251,0,36.725-16.475,36.725-36.725
						C369.667,272.016,353.192,255.542,332.942,255.542z"/>
				</g>
				<g>
					<path class="st3" d="M350.134,412.929h-33.275c-3.238,0-5.863-2.625-5.863-5.863v-24.672
						c-8.953-2.22-17.438-5.731-25.326-10.481l-17.44,17.441c-1.099,1.099-2.591,1.717-4.145,1.717s-3.046-0.618-4.146-1.717
						l-23.529-23.53c-2.29-2.29-2.29-6.001,0-8.291l17.439-17.439c-4.751-7.889-8.262-16.375-10.481-25.325h-24.673
						c-3.238,0-5.863-2.625-5.863-5.863v-33.276c0-3.238,2.625-5.863,5.863-5.863h24.673c2.219-8.952,5.731-17.437,10.481-25.326
						l-17.439-17.44c-2.29-2.29-2.29-6.002,0-8.291l23.529-23.529c2.289-2.289,6.001-2.289,8.291,0l17.44,17.439
						c7.889-4.75,16.374-8.261,25.326-10.481v-24.673c0-3.238,2.625-5.863,5.863-5.863h33.275c3.238,0,5.863,2.625,5.863,5.863
						v24.673c8.95,2.219,17.436,5.73,25.326,10.481l17.439-17.439c2.289-2.289,6.001-2.289,8.291,0l23.53,23.529
						c1.099,1.099,1.717,2.591,1.717,4.146c0,1.555-0.618,3.046-1.717,4.146l-17.44,17.44c4.75,7.889,8.262,16.374,10.482,25.326
						h24.672c3.238,0,5.863,2.625,5.863,5.863v33.276c0,3.238-2.625,5.863-5.863,5.863h-24.672
						c-2.219,8.952-5.731,17.436-10.481,25.325l17.44,17.439c1.099,1.099,1.717,2.591,1.717,4.145c0,1.555-0.618,3.046-1.717,4.146
						l-23.53,23.53c-1.099,1.099-2.591,1.717-4.146,1.717c-1.555,0-3.046-0.618-4.145-1.717l-17.439-17.44
						c-7.889,4.751-16.374,8.262-25.326,10.481v24.672C355.997,410.304,353.372,412.929,350.134,412.929z M322.722,401.204h21.55
						v-23.518c0-2.808,1.991-5.221,4.748-5.756c10.749-2.082,20.788-6.238,29.84-12.35c2.327-1.573,5.442-1.273,7.426,0.713
						l16.622,16.624l15.239-15.24l-16.623-16.622c-1.985-1.985-2.284-5.1-0.713-7.426c6.113-9.052,10.268-19.091,12.35-29.839
						c0.534-2.757,2.948-4.748,5.756-4.748h23.518v-21.551h-23.518c-2.808,0-5.221-1.991-5.756-4.748
						c-2.082-10.749-6.238-20.788-12.35-29.839c-1.572-2.327-1.272-5.441,0.713-7.426l16.623-16.623l-15.239-15.238l-16.622,16.622
						c-1.985,1.985-5.099,2.284-7.426,0.713c-9.055-6.114-19.095-10.269-29.84-12.35c-2.757-0.534-4.748-2.948-4.748-5.756v-23.519
						h-21.55v23.519c0,2.808-1.991,5.221-4.748,5.756c-10.749,2.082-20.788,6.237-29.839,12.349
						c-2.327,1.572-5.441,1.272-7.427-0.713l-16.623-16.622l-15.238,15.238l16.622,16.623c1.985,1.986,2.284,5.1,0.713,7.426
						c-6.112,9.051-10.267,19.09-12.349,29.839c-0.534,2.757-2.948,4.748-5.756,4.748h-23.519v21.551h23.519
						c2.808,0,5.222,1.991,5.756,4.748c2.081,10.747,6.236,20.786,12.35,29.839c1.571,2.327,1.272,5.441-0.713,7.426l-16.623,16.622
						l15.238,15.24l16.623-16.624c1.985-1.985,5.101-2.284,7.427-0.713c9.049,6.112,19.089,10.268,29.839,12.35
						c2.757,0.534,4.748,2.948,4.748,5.756V401.204z"/>
				</g>
			</g>
		</g>
		<g>
			<path class="st3" d="M506.137,469.842H34.206C15.345,469.842,0,454.497,0,435.635V110.975c0-3.238,2.625-5.863,5.863-5.863
				h500.275c3.238,0,5.863,2.625,5.863,5.863v353.004C512,467.217,509.375,469.842,506.137,469.842z M11.725,116.837v318.798
				c0,12.396,10.085,22.481,22.481,22.481h466.069V116.837H11.725z"/>
		</g>
		<g>
			<path class="st3" d="M472.077,444.834H76.2c-3.238,0-5.863-2.625-5.863-5.863V145.561c0-3.238,2.625-5.863,5.863-5.863h395.877
				c3.238,0,5.863,2.625,5.863,5.863v293.411C477.94,442.209,475.315,444.834,472.077,444.834z M82.063,433.109h384.152V151.424
				H82.063V433.109z"/>
		</g>
		<g>
			<path class="st3" d="M350.134,412.929H104.577c-3.238,0-5.863-2.625-5.863-5.863v-229.6c0-3.238,2.625-5.863,5.863-5.863h245.557
				c3.238,0,5.863,2.625,5.863,5.863c0,3.238-2.625,5.863-5.863,5.863H110.439v217.875h239.695c3.238,0,5.863,2.624,5.863,5.863
				C355.997,410.304,353.372,412.929,350.134,412.929z"/>
		</g>
		<g>
			<path class="st3" d="M332.942,340.717H149.151c-3.238,0-5.863-2.625-5.863-5.863v-85.175c0-3.238,2.625-5.863,5.863-5.863
				h183.791c3.238,0,5.863,2.625,5.863,5.863c0,3.238-2.625,5.863-5.863,5.863H155.014v73.449h177.928
				c3.238,0,5.863,2.625,5.863,5.863S336.179,340.717,332.942,340.717z"/>
		</g>
		<g>
			<path class="st3" d="M104.577,428.297c-3.238,0-5.863-2.625-5.863-5.863V162.098c0-3.238,2.625-5.863,5.863-5.863
				c3.238,0,5.863,2.625,5.863,5.863v260.337C110.439,425.672,107.814,428.297,104.577,428.297z"/>
		</g>
		<g>
			<path class="st3" d="M149.151,358.055c-3.238,0-5.863-2.625-5.863-5.863V232.34c0-3.238,2.625-5.863,5.863-5.863
				c3.238,0,5.863,2.625,5.863,5.863v119.853C155.014,355.43,152.389,358.055,149.151,358.055z"/>
		</g>
		<g>
			<path class="st3" d="M112.554,183.329H90.291c-3.238,0-5.863-2.625-5.863-5.863c0-3.238,2.625-5.863,5.863-5.863h22.263
				c3.238,0,5.863,2.625,5.863,5.863C118.417,180.704,115.792,183.329,112.554,183.329z"/>
		</g>
		<g>
			<path class="st3" d="M157.022,255.542H134.76c-3.238,0-5.863-2.625-5.863-5.863c0-3.238,2.625-5.863,5.863-5.863h22.263
				c3.238,0,5.863,2.625,5.863,5.863C162.885,252.917,160.26,255.542,157.022,255.542z"/>
		</g>
		<g>
			<path class="st3" d="M157.022,340.717H134.76c-3.238,0-5.863-2.625-5.863-5.863s2.625-5.863,5.863-5.863h22.263
				c3.238,0,5.863,2.625,5.863,5.863S160.26,340.717,157.022,340.717z"/>
		</g>
		<g>
			<path class="st3" d="M112.554,412.929H90.291c-3.238,0-5.863-2.625-5.863-5.863c0-3.238,2.625-5.863,5.863-5.863h22.263
				c3.238,0,5.863,2.625,5.863,5.863C118.417,410.304,115.792,412.929,112.554,412.929z"/>
		</g>
		<g>
			<path class="st6" d="M41.031,48.021c-19.423,0-35.169,15.746-35.169,35.169v351.973c0-19.423,15.746-35.169,35.169-35.169
				S76.2,415.739,76.2,435.162V83.19C76.2,63.766,60.454,48.021,41.031,48.021z"/>
		</g>
		<g>
			<path class="st4" d="M49.433,49.039v351.973c12.451,3.053,22.295,12.731,25.582,25.089H76.2V83.19
				C76.2,66.663,64.798,52.806,49.433,49.039z"/>
		</g>
		<g>
			<path class="st3" d="M76.2,441.025c-3.238,0-5.863-2.625-5.863-5.863c0-16.159-13.147-29.306-29.306-29.306
				c-16.159,0-29.306,13.147-29.306,29.306c0,3.238-2.624,5.863-5.863,5.863C2.625,441.025,0,438.4,0,435.162V83.189
				c0-22.625,18.406-41.031,41.032-41.031c22.624,0,41.031,18.406,41.031,41.031v351.973C82.063,438.4,79.438,441.025,76.2,441.025z
				 M41.032,53.884c-16.159,0-29.306,13.146-29.306,29.306v323.283c7.453-7.611,17.838-12.341,29.306-12.341
				s21.853,4.73,29.306,12.341V83.189C70.337,67.03,57.191,53.884,41.032,53.884z"/>
		</g>
	</g>
</g>
</svg>
